<svg width="30" height="30" viewBox="0 0 30 30" fill="none" xmlns="http://www.w3.org/2000/svg">
  <path fill="#25D366" d="M16 0C7.163 0 0 7.163 0 16c0 2.86.75 5.544 2.05 7.883L.167 30.564l6.822-1.795C9.69 29.933 12.764 31 16 31c8.837 0 16-7.163 16-16S24.837 0 16 0zm0 29.1c-2.98 0-5.767-.89-8.12-2.42l-4.785 1.258 1.278-4.653C3.92 21.44 3 18.788 3 16 3 8.828 8.828 3 16 3s13 5.828 13 13-5.828 13-13 13zm7.755-9.356c-.413-.207-2.448-1.214-2.83-1.35-.382-.137-.662-.206-.944.207-.275.404-1.083 1.35-1.328 1.628-.25.28-.482.314-.895.104-.413-.207-1.74-.642-3.316-2.05-1.226-1.086-2.05-2.422-2.286-2.837-.24-.413-.026-.637.18-.844.185-.184.413-.482.62-.723.207-.241.275-.413.413-.688.138-.275.07-.516-.035-.723-.103-.206-.944-2.293-1.292-3.134-.338-.814-.68-.702-.944-.713l-.88-.013c-.309 0-.78.104-1.19.482-.412.379-1.57 1.535-1.57 3.735s1.606 4.327 1.83 4.635c.226.304 3.162 4.8 7.665 6.72.739.32 1.316.509 1.765.651.74.235 1.414.202 1.944.122.59-.087 1.826-.747 2.086-1.469.26-.72.26-1.334.184-1.469-.079-.13-.3-.208-.62-.345z"/>
</svg>
